<?xml version="1.0" encoding="utf-8"?>
<!-- Generator: Adobe Illustrator 21.0.0, SVG Export Plug-In . SVG Version: 6.00 Build 0)  -->
<svg version="1.1" id="Слой_1" xmlns="http://www.w3.org/2000/svg" xmlns:xlink="http://www.w3.org/1999/xlink" x="0px" y="0px"
	 viewBox="0 0 200 33" style="enable-background:new 0 0 200 33;" xml:space="preserve">
<style type="text/css">
	.st0{fill:#c0c0c0;}
	.st1{fill:#96ca2d;}
	.st2{fill:#FFFFFF;}
</style>
<g id="Слой_1_1_">
	<polygon class="st0" points="7.5,4 18.1,4 27.5,18.1 27.5,9.2 24.7,9.2 24.7,4 36,4 36,9.1 33.5,9.1 33.5,30.6 25.5,30.6 
		15.9,16.2 15.9,25.7 18.7,25.7 18.7,30.6 7.5,30.6 7.5,25.7 9.6,25.7 9.7,9.2 7.5,9.2 	"/>
	<circle class="st0" cx="43" cy="5.7" r="3.9"/>
	<polygon class="st0" points="37.9,11.9 46.5,11.9 46.5,25.7 48.3,25.7 48.3,30.6 37.9,30.6 37.9,25.7 39.4,25.7 39.4,16.6 
		37.9,16.6 	"/>
	<circle class="st0" cx="78.6" cy="26.3" r="4.3"/>
</g>
<path class="st0" d="M101.6,7V4.2h6.7v9h-6.8v-1c0-0.3-0.1-0.6-0.3-0.9c-0.4-0.7-1.7-2.2-2.8-2.4c-1-0.2-1.2-0.3-2.4-0.1
	c-0.7,0.1-1.4,0.5-1.7,1c-0.9,1.1-0.5,2.9,2.8,3.8c2.6,0.7,3.9,1.2,4.4,1.5c0.1,0.1,4.3,1.5,6,3.9c1.3,1.7,1.4,3.6,1.3,4.7
	c-0.1,0.7-0.3,1.3-0.6,1.9c-0.3,0.5-0.7,1.1-1.2,1.7c-0.8,1-1.8,1.9-3,2.4c-1.4,0.5-2.7,1-6.5,0.8s-6.6-3.3-6.6-3.3v3.3h-6.5v-9.8
	h6.8v1c0,0.3,0.1,0.6,0.2,0.8c0.3,0.6,0.9,1.5,2.3,1.7c2,0.3,3.7,0.4,4.5,0.1c0.2-0.1,0.3-0.2,0.4-0.2c0.6-0.5,0.9-1.3,0.5-2
	c-0.1-0.3-0.3-0.5-0.7-0.7c-1.1-0.6-5-1.8-6.6-2.1c-1.6-0.3-4-1.7-5.8-3.9s-0.9-5.6-0.9-5.6s0.4-3.2,3.6-5.1
	c3.2-1.8,5.4-1.5,5.4-1.5s2.5,0,4.3,1C100.2,5.2,101.6,7,101.6,7z"/>
<polygon class="st0" points="72.9,25.7 72.9,30.6 61.8,30.6 61.8,25.7 63.5,25.7 60.7,21.6 59.4,22.4 59.4,25.7 60.8,25.7 
	60.7,30.6 50.8,30.6 50.8,25.7 52.3,25.7 52.4,7.4 50.8,7.4 50.8,2.5 59.4,2.5 59.4,19.6 63.9,16.5 61.1,16.5 61.1,11.6 71.4,11.6 
	71.4,16.5 68.4,16.5 66.1,18.4 71.1,25.7 "/>
<path class="st1" d="M177,2h-40.5C128,2,121,8.8,121,17.1v0.3c0,8.3,7,15.1,15.5,15.1H177c8.5,0,15.5-6.8,15.5-15.1v-0.3
	C192.5,8.8,185.5,2,177,2z M176.9,27.7c-5.9,0-10.6-4.6-10.6-10.4S171,6.9,176.9,6.9s10.6,4.6,10.6,10.4S182.8,27.7,176.9,27.7z"/>
<polygon class="st2" points="145.8,9.3 152.1,9.3 157.7,17.7 157.7,12.6 156.1,12.6 156.1,9.3 162.8,9.3 162.8,12.6 161.2,12.6 
	161.2,25 156.6,25 150.9,16.7 150.9,22.1 152.5,22.1 152.5,25 145.8,25 145.8,22.1 147.1,22.1 147.1,12.5 145.8,12.5 "/>
<g id="Слой_1_2_">
	<path class="st2" d="M142.4,11.6c-1.6-1.6-3.9-2.3-6.4-2.3c-4.7,0-8.5,3.5-8.5,7.9c0,2.1,0.8,4.3,2.3,5.7c1.6,1.5,3.9,2.2,6.3,2.2
		c2.5,0,5.1-0.8,6.7-2.4c1.3-1.4,1.9-3.5,1.9-5.5C144.5,15.1,143.8,13,142.4,11.6z M135.9,21.6c-1.5,0-2.6-2.1-2.6-4.7
		s1.2-4.7,2.6-4.7c1.5,0,2.6,2.1,2.6,4.7C138.6,19.5,137.4,21.6,135.9,21.6z"/>
</g>
</svg>
